<?xml version="1.0" standalone="no"?>
<!DOCTYPE svg PUBLIC "-//W3C//DTD SVG 20010904//EN"
 "http://www.w3.org/TR/2001/REC-SVG-20010904/DTD/svg10.dtd">
<svg version="1.0" xmlns="http://www.w3.org/2000/svg"
 width="512.000000pt" height="512.000000pt" viewBox="0 0 512.000000 512.000000"
 preserveAspectRatio="xMidYMid meet">

<g transform="translate(0.000000,512.000000) scale(0.100000,-0.100000)"
fill="#000000" stroke="none">
<path d="M1025 5110 c-202 -41 -359 -189 -410 -387 -23 -86 -23 -4239 0 -4326
45 -174 171 -309 342 -369 l68 -23 1535 0 1535 0 68 23 c129 45 232 132 295
250 66 124 62 -39 62 2282 0 2321 4 2158 -62 2282 -61 115 -155 196 -284 246
l-69 27 -1520 1 c-836 1 -1538 -2 -1560 -6z m3051 -434 l34 -34 0 -596 c0
-440 -3 -602 -12 -621 -26 -58 61 -55 -1537 -55 -1090 0 -1477 3 -1495 12 -14
6 -34 23 -43 37 -17 24 -18 70 -21 581 -2 305 0 575 3 599 5 32 16 54 40 78
l33 33 1482 0 1482 0 34 -34z m-2486 -1701 c29 -15 62 -50 79 -82 7 -14 11
-98 11 -241 0 -211 -1 -220 -23 -253 -48 -71 -65 -76 -284 -84 -139 -5 -211
-4 -241 4 -52 15 -107 68 -121 118 -6 21 -11 123 -11 227 0 172 2 194 21 233
22 45 60 79 107 94 41 13 432 0 462 -16z m1233 -11 c68 -45 77 -79 77 -309 0
-230 -9 -264 -77 -309 -38 -26 -42 -26 -258 -28 -247 -3 -259 -1 -312 69 l-28
36 -3 206 c-2 113 -1 220 3 237 8 43 62 102 110 120 33 12 78 13 245 8 197 -5
207 -7 243 -30z m1162 25 c55 -14 110 -66 124 -117 14 -47 14 -385 1 -433 -15
-54 -72 -106 -132 -118 -63 -14 -361 -14 -410 -1 -45 13 -93 51 -116 94 -25
46 -25 436 0 481 22 40 66 80 103 93 41 14 375 15 430 1z m-2371 -1003 c61
-46 66 -68 66 -306 0 -228 -3 -241 -57 -291 -46 -43 -82 -49 -287 -49 -164 0
-197 3 -231 19 -92 42 -105 81 -105 318 0 200 6 242 42 281 57 62 62 63 309
60 l226 -3 37 -29z m1200 11 c25 -14 48 -39 63 -67 23 -44 24 -50 21 -261 l-3
-216 -28 -36 c-53 -69 -65 -72 -314 -72 l-221 0 -39 31 c-69 55 -73 72 -73
307 0 187 2 212 20 247 18 36 55 70 90 83 8 3 112 6 230 6 205 1 217 0 254
-22z m1229 -10 c64 -49 67 -61 67 -304 0 -203 -2 -220 -21 -252 -48 -78 -92
-91 -322 -91 -181 0 -222 8 -271 50 -55 48 -57 64 -54 307 l3 220 27 35 c50
65 66 68 314 66 l221 -3 36 -28z m-2457 -956 c23 -10 52 -34 65 -52 23 -33 24
-40 27 -259 2 -218 2 -226 -20 -264 -14 -25 -40 -48 -67 -63 -42 -22 -54 -23
-247 -23 -210 0 -241 5 -283 43 -53 49 -61 86 -61 295 0 205 6 240 53 291 42
46 68 50 287 50 179 1 210 -2 246 -18z m1201 8 c15 -5 41 -22 57 -37 51 -48
56 -73 56 -292 0 -219 -5 -244 -56 -292 -47 -44 -73 -48 -284 -48 -211 0 -237
4 -284 48 -51 48 -56 73 -56 299 0 201 1 209 24 247 13 21 41 49 62 62 38 23
46 24 246 24 122 0 218 -4 235 -11z"/>
<path d="M1712 4203 c-41 -16 -60 -190 -27 -252 24 -48 81 -56 120 -16 23 22
25 31 25 125 0 94 -2 103 -25 125 -23 24 -61 31 -93 18z"/>
<path d="M3315 4185 c-23 -22 -25 -31 -25 -125 0 -94 2 -103 25 -125 24 -24
57 -31 90 -19 30 12 45 60 45 144 0 84 -15 132 -45 144 -33 12 -66 5 -90 -19z"/>
<path d="M2300 4043 c-44 -56 -3 -121 110 -176 57 -28 74 -32 150 -32 76 0 93
3 152 33 106 52 149 119 111 170 -28 38 -86 42 -122 9 -82 -77 -215 -76 -285
2 -29 32 -88 29 -116 -6z"/>
</g>
</svg>
