<?xml version="1.0" standalone="no"?>
<!DOCTYPE svg PUBLIC "-//W3C//DTD SVG 20010904//EN"
 "http://www.w3.org/TR/2001/REC-SVG-20010904/DTD/svg10.dtd">
<svg version="1.0" xmlns="http://www.w3.org/2000/svg"
 width="512.000000pt" height="512.000000pt" viewBox="0 0 512.000000 512.000000"
 preserveAspectRatio="xMidYMid meet">

<g transform="translate(0.000000,512.000000) scale(0.100000,-0.100000)"
fill="#000000" stroke="none">
<path d="M3066 5109 c-856 -61 -1569 -359 -2076 -868 -428 -429 -682 -969
-756 -1601 -20 -175 -15 -527 10 -683 90 -561 315 -1014 674 -1358 288 -276
614 -442 1037 -528 1044 -210 1905 60 2431 764 96 128 162 238 240 399 120
252 198 510 246 816 19 126 22 184 22 445 0 262 -3 318 -22 445 -72 460 -216
848 -436 1174 -91 135 -212 285 -256 316 -45 32 -98 35 -150 8 -55 -28 -83
-75 -82 -135 0 -50 17 -77 113 -188 279 -321 479 -833 529 -1358 17 -176 8
-523 -19 -687 -144 -894 -656 -1515 -1406 -1704 -187 -47 -312 -61 -550 -61
-454 1 -866 94 -1160 262 -488 280 -815 801 -912 1449 -24 166 -24 515 0 674
162 1046 911 1807 2012 2045 350 76 690 98 1132 74 238 -14 255 -11 301 49 34
45 37 126 6 169 -40 55 -92 70 -280 82 -190 12 -481 12 -648 0z"/>
<path d="M3277 4088 c-57 -34 -77 -84 -77 -199 l0 -95 -100 4 c-112 5 -142 -3
-186 -49 -38 -40 -45 -128 -14 -177 26 -42 90 -71 156 -72 28 0 72 -3 97 -6
l46 -7 3 -193 c3 -214 6 -222 78 -271 62 -42 153 -21 197 46 22 32 23 43 23
218 l0 184 108 -2 c92 -2 114 0 142 17 54 31 75 68 75 129 0 61 -21 98 -76
130 -25 14 -59 21 -139 25 l-105 5 -5 121 c-4 93 -9 126 -23 147 -43 66 -130
85 -200 45z"/>
<path d="M2185 3456 c-69 -30 -69 -31 -249 -711 -93 -352 -170 -641 -170 -642
-1 -1 -67 -9 -147 -17 -162 -17 -184 -23 -215 -57 -47 -53 -57 -113 -28 -174
31 -67 90 -87 211 -75 48 5 88 8 90 7 1 -2 -27 -113 -63 -248 -73 -274 -78
-327 -33 -375 39 -42 77 -57 132 -51 39 3 56 11 84 40 34 33 40 51 113 323 42
159 80 301 83 316 6 24 13 27 60 32 64 8 458 46 467 46 4 0 54 -154 111 -342
70 -230 111 -351 127 -369 71 -85 198 -65 251 38 21 41 11 88 -82 393 l-93
305 42 11 c56 14 90 38 110 77 36 68 12 158 -52 198 -24 15 -50 19 -112 19
l-81 0 -20 68 c-165 552 -344 1121 -359 1141 -39 54 -115 74 -177 47z m159
-985 c47 -156 86 -289 86 -295 0 -9 -51 -17 -167 -28 -93 -9 -170 -14 -172
-12 -4 3 68 284 151 592 5 19 11 32 13 30 1 -1 41 -131 89 -287z"/>
</g>
</svg>
